SplineFontDB: 3.0
FontName: NyStormningFi
FullName: Ny Stormning Fin
FamilyName: Ny Stormning
Weight: Fin
Copyright: Copyright (c) 2016, Mew Too/Cannot Into Space Fonts, Robert Jablonski/Cannot Into Space Fonts, All Rights Reserved.
Version: 0.90
ItalicAngle: 0
UnderlinePosition: -100
UnderlineWidth: 50
Ascent: 800
Descent: 200
InvalidEm: 0
sfntRevision: 0x0000e666
LayerCount: 2
Layer: 0 0 "Back" 1
Layer: 1 0 "Fore" 0
XUID: [1021 908 -2008021153 9976829]
StyleMap: 0x0000
FSType: 0
OS2Version: 4
OS2_WeightWidthSlopeOnly: 0
OS2_UseTypoMetrics: 1
CreationTime: 1422214609
ModificationTime: 1452318969
PfmFamily: 33
TTFWeight: 300
TTFWidth: 5
LineGap: 90
VLineGap: 0
Panose: 2 0 5 3 0 0 0 0 0 0
OS2TypoAscent: 800
OS2TypoAOffset: 0
OS2TypoDescent: -200
OS2TypoDOffset: 0
OS2TypoLinegap: 90
OS2WinAscent: 904
OS2WinAOffset: 0
OS2WinDescent: 1
OS2WinDOffset: 0
HheadAscent: 904
HheadAOffset: 0
HheadDescent: -1
HheadDOffset: 0
OS2SubXSize: 650
OS2SubYSize: 699
OS2SubXOff: 0
OS2SubYOff: 140
OS2SupXSize: 650
OS2SupYSize: 699
OS2SupXOff: 0
OS2SupYOff: 479
OS2StrikeYSize: 49
OS2StrikeYPos: 258
OS2CapHeight: 860
OS2XHeight: 860
OS2FamilyClass: 2048
OS2Vendor: 'CiSf'
OS2CodePages: 00000001.00000000
OS2UnicodeRanges: 00000007.00000000.00000000.00000000
Lookup: 258 0 0 "'kern' Horizontal Kerning in Latin lookup 0" { "'kern' Horizontal Kerning in Latin lookup 0-1" [100,10,2] } ['kern' ('DFLT' <'dflt' > 'latn' <'dflt' > ) ]
MarkAttachClasses: 1
DEI: 91125

StartChar: .notdef
Encoding: 65536 -1 0
Width: 445
Flags: W
HStem: 5 40<63 373> 488 40<63 373>
VStem: 23 40<45 488> 373 40<45 488>
LayerCount: 2
Fore
SplineSet
63 488 m 1
 63 45 l 1
 373 45 l 1
 373 488 l 1
 63 488 l 1
413 5 m 1
 23 5 l 1
 23 528 l 1
 413 528 l 1
 413 5 l 1
EndSplineSet
EndChar

StartChar: comma
Encoding: 44 44 2
Width: 210
Flags: W
HStem: 319 166<47.1324 153.774>
VStem: 21 160<346.526 457.474>
LayerCount: 2
Fore
SplineSet
100 319 m 0
 57 319 21 357 21 402 c 0
 21 447 57 485 100 485 c 0
 143 485 181 447 181 402 c 0
 181 357 143 319 100 319 c 0
EndSplineSet
EndChar

StartChar: period
Encoding: 46 46 3
Width: 212
Flags: W
HStem: 171 167<50.1268 153.873> 430 167<51.1268 154.873>
VStem: 22 160<198.526 309.927 459.594 567.976>
LayerCount: 2
Fore
SplineSet
102 171 m 0
 59 171 22 209 22 254 c 0
 22 299 59 338 102 338 c 0
 145 338 182 299 182 254 c 0
 182 209 145 171 102 171 c 0
103 430 m 0
 60 430 23 469 23 514 c 0
 23 559 60 597 103 597 c 0
 146 597 183 559 183 514 c 0
 183 469 146 430 103 430 c 0
EndSplineSet
EndChar

StartChar: zero
Encoding: 48 48 4
Width: 832
Flags: W
HStem: 807 20G<245 583.5>
VStem: 23 124<550.062 650.646> 347 136<10 378 485 713> 683 124<549.868 650.479>
CounterMasks: 1 70
LayerCount: 2
Fore
SplineSet
483 485 m 1
 488 485 l 2
 583 491 683 531 683 601 c 0
 679 663 627 686 489 712 c 0
 483 713 l 1
 483 485 l 1
483 378 m 1
 483 10 l 1
 347 10 l 1
 347 378 l 1
 343 379 l 0
 184 397 26 522 23 606 c 1
 28 697 148 819 342 827 c 1
 486 827 l 1
 681 819 802 696 807 606 c 1
 804 521 645 397 487 379 c 0
 483 378 l 1
342 485 m 0
 347 485 l 1
 347 713 l 1
 341 712 l 0
 203 686 151 663 147 601 c 0
 147 531 247 491 342 485 c 0
EndSplineSet
EndChar

StartChar: one
Encoding: 49 49 5
Width: 426
Flags: W
HStem: 774 86<155 400>
VStem: 28 127<10 774>
LayerCount: 2
Fore
SplineSet
155 774 m 1
 155 10 l 1
 28 10 l 1
 28 860 l 1
 400 860 l 1
 400 774 l 1
 155 774 l 1
EndSplineSet
EndChar

StartChar: two
Encoding: 50 50 6
Width: 429
Flags: W
HStem: 629 87<155 401> 774 86<155 401>
VStem: 28 127<10 629 716 774>
LayerCount: 2
Fore
SplineSet
155 10 m 1
 28 10 l 1
 28 860 l 1
 401 860 l 1
 401 774 l 1
 155 774 l 1
 155 716 l 1
 401 716 l 1
 401 629 l 1
 155 629 l 1
 155 10 l 1
EndSplineSet
EndChar

StartChar: three
Encoding: 51 51 7
Width: 430
Flags: W
HStem: 481 87<155 400> 625 90<155 400> 774 86<155 400>
VStem: 28 372<481 568 625 715 774 860> 28 127<5 481 568 625 715 774>
LayerCount: 2
Fore
SplineSet
155 5 m 1xe8
 28 5 l 1xe8
 28 860 l 1
 400 860 l 1
 400 774 l 1xf0
 155 774 l 1
 155 715 l 1xe8
 400 715 l 1
 400 625 l 1xf0
 155 625 l 1
 155 568 l 1xe8
 400 568 l 1
 400 481 l 1xf0
 155 481 l 1
 155 5 l 1xe8
EndSplineSet
EndChar

StartChar: four
Encoding: 52 52 8
Width: 432
Flags: W
HStem: 341 87<155 400> 481 87<155 400> 625 90<155 400> 774 86<155 400>
VStem: 28 372<341 428 481 568 625 715 774 860> 28 127<5 341 428 481 568 625 715 774>
LayerCount: 2
Fore
SplineSet
155 5 m 1xf4
 28 5 l 1xf4
 28 860 l 1
 400 860 l 1
 400 774 l 1xf8
 155 774 l 1
 155 715 l 1xf4
 400 715 l 1
 400 625 l 1xf8
 155 625 l 1
 155 568 l 1xf4
 400 568 l 1
 400 481 l 1xf8
 155 481 l 1
 155 428 l 1xf4
 400 428 l 1
 400 341 l 1xf8
 155 341 l 1
 155 5 l 1xf4
EndSplineSet
EndChar

StartChar: five
Encoding: 53 53 9
Width: 513
Flags: W
HStem: 807 20G<28.9755 265.5>
VStem: 28 136<10 378 485 713> 364 124<549.868 650.479>
LayerCount: 2
Fore
SplineSet
163 485 m 1
 168 485 l 2
 263 491 364 531 364 601 c 0
 360 663 307 686 169 712 c 0
 163 713 l 1
 163 485 l 1
28 10 m 1
 29 827 l 1
 168 827 l 1
 363 819 483 696 488 606 c 1
 485 521 326 397 168 379 c 0
 164 378 l 1
 164 10 l 1
 28 10 l 1
EndSplineSet
EndChar

StartChar: six
Encoding: 54 54 10
Width: 513
Flags: W
HStem: 316 49<169 344> 375 110<168 255.946> 807 20G<28.9757 265.5>
VStem: 28 136<5 316 485 713> 364 124<550.81 649.711>
LayerCount: 2
Fore
SplineSet
28 5 m 1
 29 827 l 1
 168 827 l 1
 363 819 483 695 488 604 c 1
 485 518 326 393 168 375 c 1
 169 365 l 1
 344 365 l 1
 344 316 l 1
 164 316 l 1
 164 5 l 1
 28 5 l 1
163 485 m 1
 168 485 l 2
 263 491 364 531 364 601 c 0
 360 663 307 686 169 712 c 0
 163 713 l 1
 163 485 l 1
EndSplineSet
EndChar

StartChar: seven
Encoding: 55 55 11
Width: 512
Flags: W
HStem: 228 49<164 344> 316 49<169 344> 375 110<168 255.946> 807 20G<28.9757 265.5>
VStem: 28 136<5 228 277 316 485 713> 364 124<550.81 649.711>
LayerCount: 2
Fore
SplineSet
28 5 m 1
 29 827 l 1
 168 827 l 1
 363 819 483 695 488 604 c 1
 485 518 326 393 168 375 c 1
 169 365 l 1
 344 365 l 1
 344 316 l 1
 164 316 l 1
 164 277 l 1
 344 277 l 1
 344 228 l 1
 164 228 l 1
 164 5 l 1
 28 5 l 1
163 485 m 1
 168 485 l 2
 263 491 364 531 364 601 c 0
 360 663 307 686 169 712 c 0
 163 713 l 1
 163 485 l 1
EndSplineSet
EndChar

StartChar: eight
Encoding: 56 56 12
Width: 512
Flags: W
HStem: 140 49<164 344> 228 49<164 344> 316 49<169 344> 375 110<168 255.946> 807 20G<28.9757 265.5>
VStem: 28 136<5 140 189 228 277 316 485 713> 364 124<550.81 649.711>
LayerCount: 2
Fore
SplineSet
28 5 m 1
 29 827 l 1
 168 827 l 1
 363 819 483 695 488 604 c 1
 485 518 326 393 168 375 c 1
 169 365 l 1
 344 365 l 1
 344 316 l 1
 164 316 l 1
 164 277 l 1
 344 277 l 1
 344 228 l 1
 164 228 l 1
 164 189 l 1
 344 189 l 1
 344 140 l 1
 164 140 l 1
 164 5 l 1
 28 5 l 1
163 485 m 1
 168 485 l 2
 263 491 364 531 364 601 c 0
 360 663 307 686 169 712 c 0
 163 713 l 1
 163 485 l 1
EndSplineSet
EndChar

StartChar: nine
Encoding: 57 57 13
Width: 512
Flags: W
HStem: 52 49<164 344> 140 49<164 344> 228 49<164 344> 316 49<169 344> 375 110<168 255.946> 807 20G<28.9757 265.5>
VStem: 28 136<5 52 101 140 189 228 277 316 485 713> 364 124<550.81 649.711>
LayerCount: 2
Fore
SplineSet
28 5 m 1
 29 827 l 1
 168 827 l 1
 363 819 483 695 488 604 c 1
 485 518 326 393 168 375 c 1
 169 365 l 1
 344 365 l 1
 344 316 l 1
 164 316 l 1
 164 277 l 1
 344 277 l 1
 344 228 l 1
 164 228 l 1
 164 189 l 1
 344 189 l 1
 344 140 l 1
 164 140 l 1
 164 101 l 1
 344 101 l 1
 344 52 l 1
 164 52 l 1
 164 5 l 1
 28 5 l 1
163 485 m 1
 168 485 l 2
 263 491 364 531 364 601 c 0
 360 663 307 686 169 712 c 0
 163 713 l 1
 163 485 l 1
EndSplineSet
EndChar

StartChar: colon
Encoding: 58 58 14
Width: 745
Flags: W
LayerCount: 2
Fore
SplineSet
539 6 m 1
 462 7 l 1
 276 7 l 1
 197 6 l 1
 315 298 l 1
 23 180 l 1
 23 523 l 1
 315 405 l 1
 197 697 l 1
 276 696 l 1
 460 696 l 1
 539 697 l 1
 421 405 l 1
 713 523 l 1
 713 180 l 1
 421 298 l 1
 539 6 l 1
EndSplineSet
EndChar

StartChar: at
Encoding: 64 64 15
Width: 847
Flags: W
HStem: 840 20G<28 236.959>
VStem: 28 127<10 583 675 767> 502 127<10 766>
LayerCount: 2
Fore
SplineSet
629 766 m 1
 629 10 l 1
 502 10 l 1
 502 766 l 1
 334 691 l 1
 325 721 l 1
 155 767 l 1
 155 675 l 1
 302 637 l 1
 274 550 l 1
 155 583 l 1
 155 10 l 1
 28 10 l 1
 28 860 l 1
 159 860 l 1
 350 811 l 1
 346 799 l 1
 570 903 l 1
 824 780 l 1
 798 691 l 1
 629 766 l 1
EndSplineSet
EndChar

StartChar: A
Encoding: 65 65 16
Width: 373
Flags: W
HStem: 835 20G<27 231>
VStem: 27 122<5 577 670 761>
LayerCount: 2
Fore
SplineSet
27 5 m 1
 27 855 l 1
 153 855 l 1
 348 805 l 1
 322 716 l 1
 149 761 l 1
 149 670 l 1
 301 632 l 1
 273 545 l 1
 149 577 l 1
 149 5 l 1
 27 5 l 1
EndSplineSet
EndChar

StartChar: B
Encoding: 66 66 17
Width: 537
Flags: W
HStem: 802 20G<27 179.891>
VStem: 27 122<110 406 421 717>
LayerCount: 2
Fore
SplineSet
149 110 m 1
 367 261 l 1
 149 406 l 1
 149 110 l 1
149 717 m 1
 149 421 l 1
 367 566 l 1
 149 717 l 1
509 261 m 1
 152 5 l 1
 27 5 l 1
 27 822 l 1
 152 822 l 1
 509 566 l 1
 285 414 l 1
 509 261 l 1
EndSplineSet
EndChar

StartChar: C
Encoding: 67 67 18
Width: 346
Flags: W
VStem: 22 294
LayerCount: 2
Fore
SplineSet
22 430 m 1
 316 828 l 1
 315 657 l 1
 155 430 l 1
 315 203 l 1
 316 32 l 1
 22 430 l 1
EndSplineSet
EndChar

StartChar: D
Encoding: 68 68 19
Width: 666
Flags: W
HStem: 835 20G<27 162.41 496.526 633>
VStem: 27 105<196 664> 528 105<196 664>
LayerCount: 2
Fore
SplineSet
528 196 m 1
 528 664 l 1
 392 430 l 1
 528 196 l 1
132 664 m 1
 132 196 l 1
 267 430 l 1
 132 664 l 1
151 5 m 1
 27 5 l 1
 27 855 l 1
 151 855 l 1
 329 543 l 1
 508 855 l 1
 633 855 l 1
 633 5 l 1
 508 5 l 1
 329 317 l 1
 151 5 l 1
EndSplineSet
EndChar

StartChar: E
Encoding: 69 69 20
Width: 715
Flags: W
VStem: 27 122<10 723> 560 122<10 723>
LayerCount: 2
Fore
SplineSet
560 10 m 1
 560 723 l 1
 354 588 l 1
 149 723 l 1
 149 10 l 1
 27 10 l 1
 27 903 l 1
 80 904 l 1
 355 696 l 1
 629 904 l 1
 682 903 l 1
 682 10 l 1
 560 10 l 1
EndSplineSet
EndChar

StartChar: F
Encoding: 70 70 21
Width: 525
Flags: W
HStem: 836 20G<27 149 340.579 494>
VStem: 27 122<6 209 372 465 628 856>
LayerCount: 2
Fore
SplineSet
149 5 m 1
 27 6 l 1
 27 856 l 1
 149 856 l 1
 149 628 l 1
 359 856 l 1
 494 856 l 1
 149 465 l 1
 149 372 l 1
 361 593 l 1
 496 593 l 1
 149 209 l 1
 149 5 l 1
EndSplineSet
EndChar

StartChar: G
Encoding: 71 71 22
Width: 625
Flags: W
HStem: 747 96<255.963 332.721> 835 20G<27 149 472.5 600>
VStem: 27 122<5 418 521 855> 248 93<755.332 834.668>
LayerCount: 2
Fore
SplineSet
149 521 m 1x70
 156 523 l 2
 271 565 445 705 500 855 c 1
 600 855 l 1
 553 678 320 482 152 420 c 0
 149 418 l 1
 149 5 l 1
 27 5 l 1
 27 855 l 1
 149 855 l 1
 149 521 l 1x70
294 747 m 0xb0
 269 747 248 769 248 795 c 0
 248 821 269 843 294 843 c 0
 319 843 341 821 341 795 c 0
 341 769 319 747 294 747 c 0xb0
EndSplineSet
EndChar

StartChar: H
Encoding: 72 72 23
Width: 627
Flags: W
HStem: 835 20G<27 149 472 594>
VStem: 27 122<5 427 523 855> 472 122<5 344 440 855>
LayerCount: 2
Fore
SplineSet
149 5 m 1
 27 5 l 1
 27 855 l 1
 149 855 l 1
 149 523 l 1
 472 440 l 1
 472 855 l 1
 594 855 l 1
 594 5 l 1
 472 5 l 1
 472 344 l 1
 149 427 l 1
 149 5 l 1
EndSplineSet
EndChar

StartChar: I
Encoding: 73 73 24
Width: 182
Flags: W
HStem: 835 20G<27 149>
VStem: 27 122<5 855>
LayerCount: 2
Fore
SplineSet
149 5 m 1
 27 5 l 1
 27 855 l 1
 149 855 l 1
 149 5 l 1
EndSplineSet
EndChar

StartChar: J
Encoding: 74 74 25
Width: 578
Flags: W
HStem: 821 20G<246.987 263>
LayerCount: 2
Fore
SplineSet
554 316 m 1
 313 14 l 1
 313 185 l 1
 425 316 l 1
 313 446 l 1
 313 617 l 1
 554 316 l 1
263 409 m 1
 263 238 l 1
 22 540 l 1
 263 841 l 1
 263 670 l 1
 151 540 l 1
 263 409 l 1
EndSplineSet
EndChar

StartChar: K
Encoding: 75 75 26
Width: 486
Flags: W
HStem: 836 20G<27 149 307.324 458>
VStem: 27 122<6 487 634 856>
LayerCount: 2
Fore
SplineSet
149 5 m 1
 27 6 l 1
 27 856 l 1
 149 856 l 1
 149 634 l 1
 323 856 l 1
 458 856 l 1
 149 487 l 1
 149 5 l 1
EndSplineSet
EndChar

StartChar: L
Encoding: 76 76 27
Width: 368
Flags: W
VStem: 27 120<10 728>
LayerCount: 2
Fore
SplineSet
147 10 m 1
 27 10 l 1
 27 900 l 1
 342 742 l 1
 315 653 l 1
 147 728 l 1
 147 10 l 1
EndSplineSet
EndChar

StartChar: M
Encoding: 77 77 28
Width: 715
Flags: W
VStem: 27 121<10 429 517 718> 560 122<10 430 517 718>
LayerCount: 2
Fore
SplineSet
148 517 m 1
 285 631 l 1
 148 718 l 1
 148 517 l 1
424 629 m 1
 560 517 l 1
 560 718 l 1
 424 629 l 1
682 10 m 1
 560 10 l 1
 560 430 l 1
 355 588 l 1
 149 429 l 1
 148 10 l 1
 27 10 l 1
 27 903 l 1
 80 904 l 1
 355 696 l 1
 629 904 l 1
 682 903 l 1
 682 10 l 1
EndSplineSet
EndChar

StartChar: N
Encoding: 78 78 29
Width: 549
Flags: W
HStem: 835 20G<207 329>
VStem: 207 122<5 408 537 855>
LayerCount: 2
Fore
SplineSet
513 360 m 1
 329 408 l 1
 329 5 l 1
 207 5 l 1
 207 440 l 1
 22 489 l 1
 46 579 l 1
 207 537 l 1
 207 855 l 1
 329 855 l 1
 329 505 l 1
 524 453 l 1
 513 360 l 1
EndSplineSet
EndChar

StartChar: O
Encoding: 79 79 30
Width: 375
Flags: W
HStem: 835 20G<27 149>
VStem: 27 122<5 295 390 470 564 855>
LayerCount: 2
Fore
SplineSet
149 5 m 1
 27 5 l 1
 27 855 l 1
 149 855 l 1
 149 564 l 1
 312 609 l 1
 336 520 l 1
 149 470 l 1
 149 390 l 1
 325 438 l 1
 349 349 l 1
 149 295 l 1
 149 5 l 1
EndSplineSet
EndChar

StartChar: P
Encoding: 80 80 31
Width: 377
Flags: W
VStem: 27 122<150 764>
LayerCount: 2
Fore
SplineSet
81 10 m 1
 27 11 l 1
 27 903 l 1
 81 904 l 1
 349 780 l 1
 323 691 l 1
 149 764 l 1
 149 150 l 1
 323 223 l 1
 349 134 l 1
 81 10 l 1
EndSplineSet
EndChar

StartChar: Q
Encoding: 81 81 32
Width: 433
Flags: W
HStem: 835 20G<278 400>
VStem: 278 122<5 121 259 601 739 855>
LayerCount: 2
Fore
SplineSet
22 430 m 1
 278 739 l 1
 278 855 l 1
 400 855 l 1
 400 5 l 1
 278 5 l 1
 278 121 l 1
 22 430 l 1
278 259 m 1
 278 601 l 1
 130 430 l 1
 278 259 l 1
EndSplineSet
EndChar

StartChar: R
Encoding: 82 82 33
Width: 600
Flags: W
HStem: 800 20G<27 179.704>
VStem: 27 122<5 717>
LayerCount: 2
Fore
SplineSet
348 414 m 1
 575 5 l 1
 449 5 l 1
 263 341 l 1
 263 453 l 1
 382 550 l 1
 149 717 l 1
 149 5 l 1
 27 5 l 1
 27 820 l 1
 152 820 l 1
 526 550 l 1
 348 414 l 1
EndSplineSet
EndChar

StartChar: S
Encoding: 83 83 34
Width: 538
Flags: W
HStem: 771 20G<27 153>
VStem: 27 126<399 791> 378 127<5 398>
LayerCount: 2
Fore
SplineSet
27 259 m 1
 27 791 l 1
 153 791 l 1
 153 399 l 1
 160 402 l 0
 259 444 353 492 447 538 c 1
 505 537 l 1
 505 5 l 1
 378 5 l 1
 378 398 l 1
 371 395 l 0
 272 353 179 304 85 258 c 1
 27 259 l 1
EndSplineSet
EndChar

StartChar: T
Encoding: 84 84 35
Width: 558
Flags: W
VStem: 217 120<10 729>
LayerCount: 2
Fore
SplineSet
337 729 m 1
 337 10 l 1
 217 10 l 1
 217 729 l 1
 49 654 l 1
 22 744 l 1
 278 903 l 1
 532 744 l 1
 505 654 l 1
 337 729 l 1
EndSplineSet
EndChar

StartChar: U
Encoding: 85 85 36
Width: 616
Flags: W
HStem: 835 20G<27 161.353>
VStem: 27 122<5 612>
LayerCount: 2
Fore
SplineSet
27 855 m 1
 151 855 l 1
 591 5 l 1
 465 5 l 1
 149 612 l 1
 149 5 l 1
 27 5 l 1
 27 855 l 1
EndSplineSet
EndChar

StartChar: V
Encoding: 86 86 37
Width: 525
Flags: W
HStem: 786 69<202.625 261.688>
VStem: 27 122<6 209 372 465 628 856> 200 64<788.33 852.531>
LayerCount: 2
Fore
SplineSet
149 5 m 1
 27 6 l 1
 27 856 l 1
 149 856 l 1
 149 628 l 1
 359 856 l 1
 494 856 l 1
 149 465 l 1
 149 372 l 1
 361 593 l 1
 496 593 l 1
 149 209 l 1
 149 5 l 1
233 786 m 0
 215 786 200 802 200 820 c 0
 200 838 215 855 233 855 c 0
 251 855 264 839 264 820 c 0
 264 801 251 786 233 786 c 0
EndSplineSet
EndChar

StartChar: W
Encoding: 87 87 38
Width: 521
Flags: W
HStem: 802 20G<27 178.875>
VStem: 27 122<5 305 418 712>
LayerCount: 2
Fore
SplineSet
149 712 m 1
 149 418 l 1
 367 566 l 1
 149 712 l 1
27 820 m 1
 152 822 l 1
 496 566 l 1
 149 305 l 1
 149 5 l 1
 27 5 l 1
 27 820 l 1
EndSplineSet
EndChar

StartChar: X
Encoding: 88 88 39
Width: 795
Flags: W
HStem: 796 69G<27 153 637 763>
VStem: 27 126<404 796> 377 128<10 403> 637 126<468 885>
LayerCount: 2
Fore
SplineSet
763 468 m 1
 637 468 l 1
 637 885 l 1
 763 885 l 1
 763 468 l 1
27 264 m 1
 27 796 l 1
 153 796 l 1
 153 404 l 1
 160 407 l 0
 259 449 353 497 447 543 c 1
 505 542 l 1
 505 10 l 1
 377 10 l 1
 377 403 l 1
 370 400 l 0
 271 358 179 309 85 263 c 1
 27 264 l 1
EndSplineSet
EndChar

StartChar: Y
Encoding: 89 89 40
Width: 616
Flags: W
HStem: 187 97<203.6 279.062> 835 20G<27 161.353>
VStem: 27 122<5 612> 195 93<195.648 275.668>
LayerCount: 2
Fore
SplineSet
27 855 m 1
 151 855 l 1
 591 5 l 1
 465 5 l 1
 149 612 l 1
 149 5 l 1
 27 5 l 1
 27 855 l 1
241 187 m 0
 216 187 195 210 195 236 c 0
 195 262 216 284 241 284 c 0
 266 284 288 262 288 236 c 0
 288 210 266 187 241 187 c 0
EndSplineSet
EndChar

StartChar: Z
Encoding: 90 90 41
Width: 560
Flags: W
HStem: 865 20G<218 338>
VStem: 218 120<455 885>
LayerCount: 2
Fore
SplineSet
218 455 m 1
 218 885 l 1
 338 885 l 1
 338 455 l 1
 506 530 l 1
 533 440 l 1
 278 281 l 1
 23 440 l 1
 50 530 l 1
 218 455 l 1
EndSplineSet
EndChar

StartChar: a
Encoding: 97 97 42
Width: 373
Flags: W
HStem: 840 20G<27 231>
VStem: 27 122<10 582 675 766>
LayerCount: 2
Fore
SplineSet
27 10 m 1
 27 860 l 1
 153 860 l 1
 348 810 l 1
 322 721 l 1
 149 766 l 1
 149 675 l 1
 301 637 l 1
 273 550 l 1
 149 582 l 1
 149 10 l 1
 27 10 l 1
EndSplineSet
EndChar

StartChar: b
Encoding: 98 98 43
Width: 368
Flags: W
HStem: 840 20G<27 149>
VStem: 27 122<10 321 416 507 599 860>
LayerCount: 2
Fore
SplineSet
27 10 m 1
 27 860 l 1
 149 860 l 1
 149 599 l 1
 268 632 l 1
 296 545 l 1
 149 507 l 1
 149 416 l 1
 320 461 l 1
 343 373 l 1
 149 321 l 1
 149 10 l 1
 27 10 l 1
EndSplineSet
EndChar

StartChar: c
Encoding: 99 99 44
Width: 370
Flags: W
HStem: 865 20G<27 147>
VStem: 27 120<455 885>
LayerCount: 2
Fore
SplineSet
27 283 m 1
 27 885 l 1
 147 885 l 1
 147 455 l 1
 315 530 l 1
 342 441 l 1
 27 283 l 1
EndSplineSet
EndChar

StartChar: d
Encoding: 100 100 45
Width: 386
Flags: W
VStem: 217 120<10 352 464 728>
LayerCount: 2
Fore
SplineSet
337 352 m 1
 337 10 l 1
 217 10 l 1
 217 356 l 1
 216 357 l 0
 205 371 199 389 199 408 c 0
 199 427 205 445 216 459 c 0
 217 460 l 1
 217 728 l 1
 49 653 l 1
 22 742 l 1
 337 900 l 1
 337 464 l 1
 338 463 l 0
 350 448 359 429 359 408 c 0
 359 387 350 368 338 353 c 0
 337 352 l 1
EndSplineSet
EndChar

StartChar: e
Encoding: 101 101 46
Width: 715
Flags: W
VStem: 27 122<10 723> 560 122<10 723>
LayerCount: 2
Fore
SplineSet
560 10 m 1
 560 723 l 1
 354 588 l 1
 149 723 l 1
 149 10 l 1
 27 10 l 1
 27 903 l 1
 80 904 l 1
 355 696 l 1
 629 904 l 1
 682 903 l 1
 682 10 l 1
 560 10 l 1
EndSplineSet
EndChar

StartChar: f
Encoding: 102 102 47
Width: 525
Flags: W
HStem: 841 20G<27 149 340.579 494>
VStem: 27 122<11 214 377 470 633 861>
LayerCount: 2
Fore
SplineSet
149 10 m 1
 27 11 l 1
 27 861 l 1
 149 861 l 1
 149 633 l 1
 359 861 l 1
 494 861 l 1
 149 470 l 1
 149 377 l 1
 361 598 l 1
 496 598 l 1
 149 214 l 1
 149 10 l 1
EndSplineSet
EndChar

StartChar: g
Encoding: 103 103 48
Width: 650
Flags: W
HStem: 840 20G<24 161.09 485.846 623>
LayerCount: 2
Fore
SplineSet
386 435 m 1
 623 10 l 1
 497 10 l 1
 323 322 l 1
 150 10 l 1
 24 10 l 1
 261 435 l 1
 24 860 l 1
 150 860 l 1
 323 548 l 1
 497 860 l 1
 623 860 l 1
 386 435 l 1
EndSplineSet
EndChar

StartChar: h
Encoding: 104 104 49
Width: 511
Flags: W
HStem: 373 114<24 192 314 481> 840 20G<192 314>
VStem: 192 122<5 373 487 860>
LayerCount: 2
Fore
SplineSet
192 487 m 1
 192 860 l 1
 314 860 l 1
 314 487 l 1
 481 487 l 1
 481 373 l 1
 314 373 l 1
 314 5 l 1
 192 5 l 1
 192 373 l 1
 24 373 l 1
 24 487 l 1
 192 487 l 1
EndSplineSet
EndChar

StartChar: i
Encoding: 105 105 50
Width: 182
Flags: W
HStem: 840 20G<27 149>
VStem: 27 122<10 860>
LayerCount: 2
Fore
SplineSet
149 10 m 1
 27 10 l 1
 27 860 l 1
 149 860 l 1
 149 10 l 1
EndSplineSet
EndChar

StartChar: j
Encoding: 106 106 51
Width: 578
Flags: W
HStem: 826 20G<246.987 263>
LayerCount: 2
Fore
SplineSet
554 316 m 1
 313 14 l 1
 313 185 l 1
 425 316 l 1
 313 446 l 1
 313 617 l 1
 554 316 l 1
263 414 m 1
 263 243 l 1
 22 545 l 1
 263 846 l 1
 263 675 l 1
 151 545 l 1
 263 414 l 1
EndSplineSet
EndChar

StartChar: k
Encoding: 107 107 52
Width: 486
Flags: W
HStem: 841 20G<27 149 307.324 458>
VStem: 27 122<11 492 639 861>
LayerCount: 2
Fore
SplineSet
149 10 m 1
 27 11 l 1
 27 861 l 1
 149 861 l 1
 149 639 l 1
 323 861 l 1
 458 861 l 1
 149 492 l 1
 149 10 l 1
EndSplineSet
EndChar

StartChar: l
Encoding: 108 108 53
Width: 368
Flags: W
VStem: 27 120<10 728>
LayerCount: 2
Fore
SplineSet
147 10 m 1
 27 10 l 1
 27 900 l 1
 342 742 l 1
 315 653 l 1
 147 728 l 1
 147 10 l 1
EndSplineSet
EndChar

StartChar: m
Encoding: 109 109 54
Width: 715
Flags: W
VStem: 27 121<10 429 517 718> 560 122<10 430 517 718>
LayerCount: 2
Fore
SplineSet
148 517 m 1
 285 631 l 1
 148 718 l 1
 148 517 l 1
424 629 m 1
 560 517 l 1
 560 718 l 1
 424 629 l 1
682 10 m 1
 560 10 l 1
 560 430 l 1
 355 588 l 1
 149 429 l 1
 148 10 l 1
 27 10 l 1
 27 903 l 1
 80 904 l 1
 355 696 l 1
 629 904 l 1
 682 903 l 1
 682 10 l 1
EndSplineSet
EndChar

StartChar: n
Encoding: 110 110 55
Width: 368
Flags: W
HStem: 840 20G<27 149>
VStem: 27 122<10 410 505 860>
LayerCount: 2
Fore
SplineSet
149 10 m 1
 27 10 l 1
 27 860 l 1
 149 860 l 1
 149 505 l 1
 343 454 l 1
 322 365 l 1
 149 410 l 1
 149 10 l 1
EndSplineSet
EndChar

StartChar: o
Encoding: 111 111 56
Width: 542
Flags: W
LayerCount: 2
Fore
SplineSet
387 444 m 1
 270 581 l 1
 151 444 l 1
 270 308 l 1
 387 444 l 1
22 444 m 1
 270 752 l 1
 516 444 l 1
 338 222 l 1
 512 5 l 1
 382 5 l 1
 270 137 l 1
 152 4 l 1
 26 5 l 1
 200 222 l 1
 22 444 l 1
EndSplineSet
EndChar

StartChar: p
Encoding: 112 112 57
Width: 377
Flags: W
VStem: 27 122<150 764>
LayerCount: 2
Fore
SplineSet
81 10 m 1
 27 11 l 1
 27 903 l 1
 81 904 l 1
 349 780 l 1
 323 691 l 1
 149 764 l 1
 149 150 l 1
 323 223 l 1
 349 134 l 1
 81 10 l 1
EndSplineSet
EndChar

StartChar: q
Encoding: 113 113 58
Width: 433
Flags: W
HStem: 840 20G<278 400>
VStem: 278 122<10 126 259 601 744 860>
LayerCount: 2
Fore
SplineSet
22 435 m 1
 278 744 l 1
 278 860 l 1
 400 860 l 1
 400 10 l 1
 278 10 l 1
 278 126 l 1
 22 435 l 1
278 259 m 1
 278 601 l 1
 130 430 l 1
 278 259 l 1
EndSplineSet
EndChar

StartChar: r
Encoding: 114 114 59
Width: 600
Flags: W
HStem: 805 20G<27 179.704>
VStem: 27 122<10 722>
LayerCount: 2
Fore
SplineSet
348 419 m 1
 575 10 l 1
 449 10 l 1
 263 346 l 1
 263 458 l 1
 382 555 l 1
 149 722 l 1
 149 10 l 1
 27 10 l 1
 27 825 l 1
 152 825 l 1
 526 555 l 1
 348 419 l 1
EndSplineSet
EndChar

StartChar: s
Encoding: 115 115 60
Width: 181
Flags: W
HStem: 865 20G<27 149>
VStem: 27 122<468 885>
LayerCount: 2
Fore
SplineSet
149 468 m 1
 27 468 l 1
 27 885 l 1
 149 885 l 1
 149 468 l 1
EndSplineSet
EndChar

StartChar: t
Encoding: 116 116 61
Width: 370
Flags: W
VStem: 217 120<10 728>
LayerCount: 2
Fore
SplineSet
337 900 m 1
 337 10 l 1
 217 10 l 1
 217 728 l 1
 49 653 l 1
 22 742 l 1
 337 900 l 1
EndSplineSet
EndChar

StartChar: u
Encoding: 117 117 62
Width: 616
Flags: W
HStem: 840 20G<27 161.353>
VStem: 27 122<10 617>
LayerCount: 2
Fore
SplineSet
27 860 m 1
 151 860 l 1
 591 10 l 1
 465 10 l 1
 149 617 l 1
 149 10 l 1
 27 10 l 1
 27 860 l 1
EndSplineSet
EndChar

StartChar: v
Encoding: 118 118 63
Width: 525
Flags: W
HStem: 791 69<202.625 261.688>
VStem: 27 122<11 214 377 470 633 861> 200 64<793.33 857.531>
LayerCount: 2
Fore
SplineSet
149 10 m 1
 27 11 l 1
 27 861 l 1
 149 861 l 1
 149 633 l 1
 359 861 l 1
 494 861 l 1
 149 470 l 1
 149 377 l 1
 361 598 l 1
 496 598 l 1
 149 214 l 1
 149 10 l 1
233 791 m 0
 215 791 200 807 200 825 c 0
 200 843 215 860 233 860 c 0
 251 860 264 844 264 825 c 0
 264 806 251 791 233 791 c 0
EndSplineSet
EndChar

StartChar: w
Encoding: 119 119 64
Width: 521
Flags: W
HStem: 807 20G<27 178.875>
VStem: 27 122<10 310 418 712>
LayerCount: 2
Fore
SplineSet
149 712 m 1
 149 418 l 1
 367 566 l 1
 149 712 l 1
27 825 m 1
 152 827 l 1
 496 571 l 1
 149 310 l 1
 149 10 l 1
 27 10 l 1
 27 825 l 1
EndSplineSet
EndChar

StartChar: x
Encoding: 120 120 65
Width: 766
Flags: W
HStem: 118 84<369 497 623 739> 622 84<23 145 273 393> 776 20G<145 273>
VStem: 145 128<404 622 706 796> 497 126<10 118 202 403>
LayerCount: 2
Fore
SplineSet
145 706 m 1
 145 796 l 1
 273 796 l 1
 273 706 l 1
 393 706 l 1
 393 622 l 1
 273 622 l 1
 273 404 l 1
 280 407 l 0
 379 449 471 496 565 542 c 1
 623 541 l 1
 623 202 l 1
 739 202 l 1
 739 118 l 1
 623 118 l 1
 623 10 l 1
 497 10 l 1
 497 118 l 1
 369 118 l 1
 369 202 l 1
 497 202 l 1
 497 403 l 1
 490 400 l 0
 391 358 297 309 203 263 c 1
 145 264 l 1
 145 622 l 1
 23 622 l 1
 23 706 l 1
 145 706 l 1
EndSplineSet
EndChar

StartChar: y
Encoding: 121 121 66
Width: 616
Flags: W
HStem: 187 97<203.6 279.062> 840 20G<27 161.353>
VStem: 27 122<10 617> 195 93<195.648 275.668>
LayerCount: 2
Fore
SplineSet
27 860 m 1
 151 860 l 1
 591 10 l 1
 465 10 l 1
 149 617 l 1
 149 10 l 1
 27 10 l 1
 27 860 l 1
241 187 m 0
 216 187 195 210 195 236 c 0
 195 262 216 284 241 284 c 0
 266 284 288 262 288 236 c 0
 288 210 266 187 241 187 c 0
EndSplineSet
EndChar

StartChar: z
Encoding: 122 122 67
Width: 560
Flags: W
HStem: 865 20G<218 338>
VStem: 218 120<455 885>
LayerCount: 2
Fore
SplineSet
218 455 m 1
 218 885 l 1
 338 885 l 1
 338 455 l 1
 506 530 l 1
 533 440 l 1
 278 281 l 1
 23 440 l 1
 50 530 l 1
 218 455 l 1
EndSplineSet
EndChar

StartChar: Adieresis
Encoding: 196 196 68
Width: 627
Flags: W
HStem: 17 96<287.963 364.721> 835 20G<467 594>
VStem: 280 93<25.332 104.668> 467 127<5 339 442 855>
LayerCount: 2
Fore
SplineSet
467 339 m 1
 460 337 l 2
 345 295 175 155 120 5 c 1
 22 5 l 1
 69 182 296 378 464 440 c 0
 467 442 l 1
 467 855 l 1
 594 855 l 1
 594 5 l 1
 467 5 l 1
 467 339 l 1
326 113 m 0
 351 113 373 91 373 65 c 0
 373 39 351 17 326 17 c 0
 301 17 280 39 280 65 c 0
 280 91 301 113 326 113 c 0
EndSplineSet
EndChar

StartChar: Aring
Encoding: 197 197 69
Width: 570
Flags: W
HStem: 835 20G<228 355>
VStem: 228 127<5 344 540 855>
LayerCount: 2
Fore
SplineSet
381 442 m 1
 542 349 l 1
 493 264 l 1
 355 344 l 1
 355 5 l 1
 228 5 l 1
 228 354 l 1
 73 264 l 1
 24 349 l 1
 185 442 l 1
 24 535 l 1
 73 620 l 1
 228 530 l 1
 228 855 l 1
 355 855 l 1
 355 540 l 1
 493 620 l 1
 542 535 l 1
 381 442 l 1
EndSplineSet
EndChar

StartChar: AE
Encoding: 198 198 70
Width: 563
Flags: W
VStem: 217 126<149 764>
LayerCount: 2
Fore
SplineSet
343 764 m 1
 343 10 l 1
 285 9 l 1
 22 133 l 1
 48 222 l 1
 217 149 l 1
 217 903 l 1
 275 904 l 1
 538 780 l 1
 512 691 l 1
 343 764 l 1
EndSplineSet
EndChar

StartChar: Eth
Encoding: 208 208 71
Width: 429
Flags: W
HStem: 402 55<187.684 238.316> 835 20G<27 149>
VStem: 27 122<5 121 257 601 739 855> 187 52<402.452 456.549>
LayerCount: 2
Fore
SplineSet
149 855 m 1
 149 739 l 1
 405 430 l 1
 149 121 l 1
 149 5 l 1
 27 5 l 1
 27 855 l 1
 149 855 l 1
297 430 m 1
 149 601 l 1
 149 257 l 1
 297 430 l 1
213 402 m 0
 199 402 187 415 187 430 c 0
 187 444 199 457 213 457 c 0
 227 457 239 444 239 430 c 0
 239 415 227 402 213 402 c 0
EndSplineSet
EndChar

StartChar: Odieresis
Encoding: 214 214 72
Width: 885
Flags: W
HStem: 836 20G<377 505>
VStem: 22 137<6 76.7803> 377 128<5 312 463 856> 723 137<5 75.1785>
CounterMasks: 1 70
LayerCount: 2
Fore
SplineSet
374 462 m 0
 377 463 l 1
 377 856 l 1
 505 856 l 1
 505 463 l 1
 508 462 l 0
 704 351 833 146 860 5 c 1
 723 5 l 1
 723 105 610 251 512 307 c 0
 505 312 l 1
 505 5 l 1
 377 5 l 1
 377 312 l 1
 370 307 l 0
 271 251 158 103 159 6 c 1
 22 6 l 1
 49 149 178 351 374 462 c 0
EndSplineSet
EndChar

StartChar: Oslash
Encoding: 216 216 73
Width: 568
Flags: W
HStem: 835 20G<217 344>
VStem: 217 127<5 262 393 436 564 855>
LayerCount: 2
Fore
SplineSet
344 5 m 1
 217 5 l 1
 217 262 l 1
 60 219 l 1
 36 309 l 1
 217 358 l 1
 217 436 l 1
 47 390 l 1
 23 479 l 1
 217 530 l 1
 217 855 l 1
 344 855 l 1
 344 564 l 1
 515 609 l 1
 529 518 l 1
 344 469 l 1
 344 393 l 1
 508 438 l 1
 541 350 l 1
 344 297 l 1
 344 5 l 1
EndSplineSet
EndChar

StartChar: Thorn
Encoding: 222 222 74
Width: 429
Flags: W
HStem: 835 20G<27 149>
VStem: 27 122<5 121 259 601 739 855>
LayerCount: 2
Fore
SplineSet
149 855 m 1
 149 739 l 1
 405 430 l 1
 149 121 l 1
 149 5 l 1
 27 5 l 1
 27 855 l 1
 149 855 l 1
297 430 m 1
 149 601 l 1
 149 259 l 1
 297 430 l 1
EndSplineSet
EndChar

StartChar: adieresis
Encoding: 228 228 75
Width: 627
Flags: W
HStem: 17 96<287.963 364.721> 840 20G<467 594>
VStem: 280 93<25.332 104.668> 467 127<10 344 447 860>
LayerCount: 2
Fore
SplineSet
467 344 m 1
 460 342 l 2
 345 300 175 160 120 10 c 1
 22 10 l 1
 69 187 296 383 464 445 c 0
 467 447 l 1
 467 860 l 1
 594 860 l 1
 594 10 l 1
 467 10 l 1
 467 344 l 1
326 113 m 0
 351 113 373 91 373 65 c 0
 373 39 351 17 326 17 c 0
 301 17 280 39 280 65 c 0
 280 91 301 113 326 113 c 0
EndSplineSet
EndChar

StartChar: aring
Encoding: 229 229 76
Width: 570
Flags: W
HStem: 840 20G<228 355>
VStem: 228 127<10 349 545 860>
LayerCount: 2
Fore
SplineSet
381 447 m 1
 542 354 l 1
 493 269 l 1
 355 349 l 1
 355 10 l 1
 228 10 l 1
 228 359 l 1
 73 269 l 1
 24 354 l 1
 185 447 l 1
 24 540 l 1
 73 625 l 1
 228 535 l 1
 228 860 l 1
 355 860 l 1
 355 545 l 1
 493 625 l 1
 542 540 l 1
 381 447 l 1
EndSplineSet
EndChar

StartChar: ae
Encoding: 230 230 77
Width: 563
Flags: W
VStem: 217 126<149 764>
LayerCount: 2
Fore
SplineSet
343 764 m 1
 343 10 l 1
 285 9 l 1
 22 133 l 1
 48 222 l 1
 217 149 l 1
 217 903 l 1
 275 904 l 1
 538 780 l 1
 512 691 l 1
 343 764 l 1
EndSplineSet
EndChar

StartChar: eth
Encoding: 240 240 78
Width: 429
Flags: W
HStem: 402 55<187.684 238.316> 840 20G<27 149>
VStem: 27 122<10 126 257 601 744 860> 187 52<402.452 456.549>
LayerCount: 2
Fore
SplineSet
149 860 m 1
 149 744 l 1
 405 435 l 1
 149 126 l 1
 149 10 l 1
 27 10 l 1
 27 860 l 1
 149 860 l 1
297 430 m 1
 149 601 l 1
 149 257 l 1
 297 430 l 1
213 402 m 0
 199 402 187 415 187 430 c 0
 187 444 199 457 213 457 c 0
 227 457 239 444 239 430 c 0
 239 415 227 402 213 402 c 0
EndSplineSet
EndChar

StartChar: odieresis
Encoding: 246 246 79
Width: 885
Flags: W
HStem: 841 20G<377 505>
VStem: 22 137<11 81.7803> 377 128<10 317 468 861> 723 137<10 80.1785>
CounterMasks: 1 70
LayerCount: 2
Fore
SplineSet
374 467 m 0
 377 468 l 1
 377 861 l 1
 505 861 l 1
 505 468 l 1
 508 467 l 0
 704 356 833 151 860 10 c 1
 723 10 l 1
 723 110 610 256 512 312 c 0
 505 317 l 1
 505 10 l 1
 377 10 l 1
 377 317 l 1
 370 312 l 0
 271 256 158 108 159 11 c 1
 22 11 l 1
 49 154 178 356 374 467 c 0
EndSplineSet
EndChar

StartChar: oslash
Encoding: 248 248 80
Width: 568
Flags: W
HStem: 840 20G<217 344>
VStem: 217 127<10 267 398 441 569 860>
LayerCount: 2
Fore
SplineSet
344 10 m 1
 217 10 l 1
 217 267 l 1
 60 224 l 1
 36 314 l 1
 217 363 l 1
 217 441 l 1
 47 395 l 1
 23 484 l 1
 217 535 l 1
 217 860 l 1
 344 860 l 1
 344 569 l 1
 515 614 l 1
 529 523 l 1
 344 474 l 1
 344 398 l 1
 508 443 l 1
 541 355 l 1
 344 302 l 1
 344 10 l 1
EndSplineSet
EndChar

StartChar: thorn
Encoding: 254 254 81
Width: 429
Flags: W
HStem: 840 20G<27 149>
VStem: 27 122<10 126 259 601 744 860>
LayerCount: 2
Fore
SplineSet
149 860 m 1
 149 744 l 1
 405 435 l 1
 149 126 l 1
 149 10 l 1
 27 10 l 1
 27 860 l 1
 149 860 l 1
297 430 m 1
 149 601 l 1
 149 259 l 1
 297 430 l 1
EndSplineSet
EndChar

StartChar: Eng
Encoding: 330 330 82
Width: 542
Flags: W
LayerCount: 2
Fore
SplineSet
151 430 m 1
 270 293 l 1
 387 430 l 1
 270 567 l 1
 151 430 l 1
516 430 m 1
 270 119 l 1
 22 430 l 1
 270 741 l 1
 516 430 l 1
EndSplineSet
EndChar

StartChar: eng
Encoding: 331 331 83
Width: 662
Flags: W
HStem: 840 20G<64 186 513 637>
VStem: 64 122<10 378 576 860>
LayerCount: 2
Fore
SplineSet
186 576 m 1
 188 575 l 2
 200 567 211 557 220 544 c 0
 222 541 l 1
 226 542 l 0
 338 595 488 724 538 860 c 1
 637 860 l 1
 594 700 399 524 239 446 c 0
 237 446 l 1
 236 443 l 0
 228 416 210 393 188 379 c 0
 186 378 l 1
 186 10 l 1
 64 10 l 1
 64 387 l 1
 62 389 l 0
 38 410 22 442 22 477 c 0
 22 512 38 544 62 565 c 0
 64 567 l 1
 64 860 l 1
 186 860 l 1
 186 576 l 1
EndSplineSet
EndChar

StartChar: OE
Encoding: 338 338 84
Width: 568
Flags: W
HStem: 835 20G<217 344>
VStem: 217 127<5 262 393 436 564 855>
LayerCount: 2
Fore
SplineSet
344 5 m 1
 217 5 l 1
 217 262 l 1
 60 219 l 1
 36 309 l 1
 217 358 l 1
 217 436 l 1
 47 390 l 1
 23 479 l 1
 217 530 l 1
 217 855 l 1
 344 855 l 1
 344 564 l 1
 515 609 l 1
 529 518 l 1
 344 469 l 1
 344 393 l 1
 508 438 l 1
 541 350 l 1
 344 297 l 1
 344 5 l 1
EndSplineSet
EndChar

StartChar: oe
Encoding: 339 339 85
Width: 568
Flags: W
HStem: 840 20G<217 344>
VStem: 217 127<10 267 398 441 569 860>
LayerCount: 2
Fore
SplineSet
344 10 m 1
 217 10 l 1
 217 267 l 1
 60 224 l 1
 36 314 l 1
 217 363 l 1
 217 441 l 1
 47 395 l 1
 23 484 l 1
 217 535 l 1
 217 860 l 1
 344 860 l 1
 344 569 l 1
 515 614 l 1
 529 523 l 1
 344 474 l 1
 344 398 l 1
 508 443 l 1
 541 355 l 1
 344 302 l 1
 344 10 l 1
EndSplineSet
EndChar

StartChar: germandbls
Encoding: 223 223 86
Width: 435
Flags: W
HStem: 865 20G<27 149 281 403>
VStem: 27 122<468 885> 281 122<468 885>
LayerCount: 2
Fore
SplineSet
149 468 m 1
 27 468 l 1
 27 885 l 1
 149 885 l 1
 149 468 l 1
403 468 m 1
 281 468 l 1
 281 885 l 1
 403 885 l 1
 403 468 l 1
EndSplineSet
EndChar
